# xmcd
#
# Track frame offsets:
#	150
#	16055
#	28442
#	42497
#	53653
#	65320
#	78279
#	87977
#	110376
#	123584
#	134579
#	149624
#	160384
#	173566
#	188437
#	199003
#	212739
#	225407
#
# Disc length: 3194 seconds
#
# Revision: 0
# Processed by: cddbd v1.5.2PL0 Copyright (c) Steve Scherf et al.
# Submitted via: EasyCDDAExtractor 12.0.4.1
#
DISCID=f50c7812
DTITLE=Various Artist - Unforgettable Songs
DYEAR=2009
DGENRE=Pop
TTITLE0=Los Soneros - Besame Muchos
TTITLE1=Nat King  Cole - Quzias,Quzias, Quzias
TTITLE2=Dean Martin - That's Amore
TTITLE3=Paul Anka - You Are My Destiny
TTITLE4=Jose Feliciano - Rain
TTITLE5=Lynn Anderson - Rose Garden
TTITLE6=Buddy Holly - Heartbeat
TTITLE7=Mary Hopkins - Those Were The Days
TTITLE8=Percy Sledge - When A Man Loves A Woman
TTITLE9=Del Shannon - Runway
TTITLE10=Kenny Rogers - For The Good Times
TTITLE11=Andy Williams - Butterfly
TTITLE12=Ray Peterson - Tell Laura I Love Her
TTITLE13=George McTae - Rock Your Baby
TTITLE14=Kenny Rogers - She Even Wolk Me
TTITLE15=Charles Aznavour - Plus Bleu Que Tes Yeux
TTITLE16=Jacques Brel - Sur La Place
TTITLE17=Nat King  Cole - Unforgettable
EXTD=
EXTT0=
EXTT1=
EXTT2=
EXTT3=
EXTT4=
EXTT5=
EXTT6=
EXTT7=
EXTT8=
EXTT9=
EXTT10=
EXTT11=
EXTT12=
EXTT13=
EXTT14=
EXTT15=
EXTT16=
EXTT17=
PLAYORDER=
